<?xml version="1.0" standalone="no"?><!DOCTYPE svg PUBLIC "-//W3C//DTD SVG 1.1//EN" "http://www.w3.org/Graphics/SVG/1.1/DTD/svg11.dtd"><svg class="icon" width="48px" height="48.00px" viewBox="0 0 1024 1024" version="1.1" xmlns="http://www.w3.org/2000/svg"><path d="M950.024683 950.265672c-6.687306 6.563486-15.441691 9.893324-24.134677 9.893324-8.81476 0-17.630542-3.37998-24.317848-10.113335l-175.701674-176.956248c-70.045309 58.96188-160.552649 94.500281-259.401981 94.500281-222.378763 0-402.629034-179.898253-402.629034-401.838018 0-221.953068 180.25027-401.911696 402.629034-401.911696 222.427882 0 402.689409 179.958628 402.689409 401.911696 0 98.706069-35.672454 189.06196-94.77555 258.962983L950.194552 901.890918C963.569164 915.334091 963.447391 936.968831 950.024683 950.265672L950.024683 950.265672zM800.584116 465.751676c0-89.055269-34.724873-172.800601-97.839329-235.785098-63.125713-62.984497-147.008168-97.698113-236.275261-97.698113-89.218998 0-173.161828 34.713616-236.214886 97.698113-63.126736 62.984497-97.851609 146.728806-97.851609 235.785098 0 89.056292 34.724873 172.799578 97.851609 235.785098 63.054081 62.98552 146.995889 97.698113 236.214886 97.698113 89.267093 0 173.149549-34.712593 236.275261-97.698113C765.859243 638.551254 800.584116 554.807968 800.584116 465.751676L800.584116 465.751676z" /></svg>